<svg width="460" height="152" viewBox="0 0 460 152"
     xmlns="http://www.w3.org/2000/svg"
     xmlns:xlink="http://www.w3.org/1999/xlink">

  <!-- Background -->
  <rect x="0" y="0" width="460" height="152" rx="8" fill="#181818"/>

  <!-- Album cover clip (rounded corners) -->
  <defs>
    <clipPath id="albumClip">
      <rect x="16" y="16" width="120" height="120" rx="4"/>
    </clipPath>
  </defs>


  <!-- Album cover image -->
  <g clip-path="url(#coverClip)" transform="translate(16,16)">
    <svg width="120" height="120" viewBox="-40 20 1034 1034">
    <path d="M 0.00 0.00 L 1024.00 0.00 L 1024.00 1024.00 L 0.00 1024.00 ZM 239.32 676.75 C243.14,680.99 247.98,678.50 249.92,671.30 C253.27,658.85 256.90,613.03 260.99,531.50 C265.04,450.97 267.71,404.96 268.38,404.29 C269.39,403.27 269.90,411.37 274.97,509.50 C275.51,519.95 276.43,538.62 277.01,551.00 C279.78,610.12 283.69,660.44 285.97,666.41 C286.41,667.56 287.74,669.37 288.92,670.43 C290.63,671.97 291.61,672.17 293.78,671.42 C300.15,669.21 301.84,654.23 307.48,550.00 C311.81,469.88 313.02,449.10 314.52,428.50 C316.39,402.77 317.16,394.82 317.71,395.38 C319.01,396.67 322.68,455.00 326.00,527.00 C329.71,607.21 332.23,640.02 335.19,646.52 C336.48,649.36 340.49,650.80 342.90,649.30 C348.39,645.90 349.46,635.95 358.00,509.00 C362.69,439.30 364.12,424.24 365.69,428.00 C366.27,429.38 367.03,434.33 367.38,439.00 C368.63,455.65 371.96,502.86 373.48,525.50 C375.62,557.42 376.88,572.48 378.60,586.81 C381.22,608.63 382.66,613.42 387.58,616.64 C389.97,618.21 390.26,618.19 392.81,616.31 C394.29,615.22 396.08,613.13 396.79,611.68 C400.20,604.74 403.50,577.44 407.99,519.00 C409.11,504.42 410.92,484.02 412.02,473.66 C413.11,463.29 414.00,454.18 414.00,453.41 C414.00,452.63 414.39,452.00 414.87,452.00 C416.06,452.00 416.51,455.38 419.47,486.00 C426.57,559.57 428.54,570.76 435.22,575.44 C437.79,577.24 441.29,577.45 444.07,575.96 C448.76,573.45 453.99,557.33 458.48,531.50 C465.63,490.35 469.33,473.93 471.06,475.66 C472.34,476.94 476.36,495.57 481.06,522.00 C489.46,569.21 493.49,579.10 503.28,576.65 C509.37,575.12 512.20,564.51 514.52,534.50 C517.75,492.61 520.12,472.79 521.72,474.38 C522.53,475.19 523.91,482.12 526.45,498.00 C529.63,517.91 531.35,523.55 535.50,527.70 C539.96,532.16 544.03,532.17 548.44,527.75 C552.86,523.32 555.27,516.28 559.09,496.67 C560.87,487.50 562.65,480.00 563.03,480.00 C563.42,480.00 564.23,483.94 564.83,488.75 C565.88,497.18 566.28,501.61 569.50,540.00 C571.90,568.66 574.06,576.09 580.23,576.81 C590.54,578.02 594.29,564.38 603.00,494.00 C606.68,464.23 609.05,449.00 610.01,449.00 C610.40,449.00 611.00,451.36 611.34,454.25 C613.11,469.45 615.20,491.73 617.45,519.50 C623.09,588.92 624.99,604.15 629.07,612.13 C632.64,619.14 638.14,619.50 641.52,612.95 C645.83,604.63 649.22,572.12 654.48,489.00 C656.62,455.09 659.28,424.00 660.04,424.00 C661.38,424.00 665.18,470.74 670.02,547.00 C672.64,588.16 675.73,625.30 677.47,636.32 C679.20,647.25 680.92,650.24 685.26,649.81 C691.34,649.21 692.72,643.63 694.94,610.50 C696.00,594.69 696.48,585.70 700.49,505.50 C702.96,456.17 705.37,415.58 706.66,401.73 C707.10,396.98 707.56,395.29 708.06,396.62 C709.16,399.61 713.64,465.90 716.50,521.50 C721.19,612.78 723.62,648.33 726.03,661.23 C727.31,668.03 729.84,671.50 733.55,671.50 C739.32,671.50 740.96,665.18 743.44,633.50 C745.45,607.82 748.26,557.87 751.99,481.50 C754.93,421.30 756.25,400.04 757.01,400.51 C757.38,400.74 757.97,406.90 758.31,414.21 C759.30,435.29 761.88,484.88 762.98,504.00 C763.53,513.62 764.45,530.28 765.02,541.00 C769.22,620.15 772.43,659.66 775.57,670.74 C777.87,678.89 783.78,681.33 787.47,675.67 C792.28,668.31 794.59,636.46 801.01,489.00 C802.91,445.38 803.92,426.54 805.64,402.50 C806.64,388.47 807.50,393.21 809.43,423.50 C810.31,437.25 811.48,455.25 812.04,463.50 C812.59,471.75 813.94,495.60 815.04,516.50 C818.59,584.31 818.99,591.22 820.54,612.00 C822.63,640.01 824.72,655.84 826.79,659.37 C830.55,665.77 836.80,663.90 838.81,655.78 C841.77,643.83 844.55,608.85 849.47,521.50 C852.24,472.29 854.73,433.69 855.89,422.00 C856.53,415.53 856.73,414.98 857.31,418.00 C857.99,421.53 860.36,455.61 864.02,514.50 C870.04,611.35 871.99,628.78 877.25,632.46 C880.28,634.59 882.29,634.39 884.79,631.73 C889.69,626.51 891.86,607.77 899.01,508.75 C902.00,467.35 904.61,438.06 905.37,437.30 C906.18,436.48 907.56,447.31 910.04,474.00 C910.58,479.77 911.25,486.30 911.54,488.50 C911.82,490.70 913.39,507.00 915.02,524.71 C919.85,577.08 922.70,593.45 927.53,596.61 C932.90,600.13 937.46,595.60 939.84,584.39 C941.56,576.28 944.66,550.99 948.00,518.00 C951.05,487.80 953.62,467.05 954.40,466.26 C955.04,465.63 955.81,470.22 958.03,488.00 C965.16,544.90 967.99,557.70 974.61,562.91 C978.12,565.67 981.19,565.55 984.79,562.52 C990.53,557.69 993.97,545.69 998.42,515.00 C1001.48,493.89 1003.50,483.97 1004.34,486.00 C1004.68,486.83 1007.23,496.05 1010.00,506.50 C1012.77,516.95 1015.74,527.30 1016.59,529.50 C1018.34,534.03 1022.12,539.98 1023.25,539.99 C1023.66,540.00 1024.00,535.00 1024.00,528.88 C1024.00,519.35 1023.49,515.80 1020.44,504.13 C1015.04,483.46 1012.18,475.40 1009.03,472.03 C1006.26,469.07 1003.08,468.26 999.54,469.62 C995.40,471.21 992.40,482.59 987.95,513.50 C985.59,529.94 981.44,549.96 980.13,551.27 C979.21,552.19 976.69,543.83 975.07,534.50 C974.50,531.20 972.22,514.55 970.01,497.50 C963.80,449.66 962.29,444.50 954.50,444.50 C951.20,444.50 950.24,445.01 948.40,447.73 C945.33,452.28 942.58,468.25 939.05,502.00 C937.41,517.67 935.61,534.55 935.05,539.50 C934.49,544.45 933.49,553.34 932.84,559.25 C932.18,565.16 931.35,570.00 931.00,570.00 C930.13,570.00 927.67,547.95 923.52,503.00 C915.43,415.35 913.41,405.92 903.36,408.45 C896.66,410.13 894.25,426.86 887.97,515.00 C887.41,522.97 886.31,537.38 885.53,547.00 C884.75,556.62 883.58,571.47 882.93,580.00 C882.27,588.53 881.41,595.86 881.01,596.30 C880.62,596.75 880.03,593.60 879.71,589.30 C878.05,566.88 874.82,518.62 873.01,489.00 C868.43,414.29 865.66,386.13 862.20,379.00 C859.21,372.85 851.96,373.90 850.04,380.76 C847.49,389.84 844.13,428.59 841.00,485.00 C838.28,534.02 835.20,584.64 833.99,600.39 C833.45,607.48 833.00,614.12 833.00,615.14 C833.00,616.16 832.62,617.00 832.15,617.00 C831.68,617.00 830.99,611.26 830.62,604.25 C830.25,597.24 829.52,585.65 829.01,578.50 C828.49,571.35 827.60,556.05 827.02,544.50 C822.14,447.47 818.01,386.98 815.03,368.65 C814.50,365.44 813.27,361.17 812.29,359.15 C810.67,355.86 810.11,355.50 806.50,355.50 C802.92,355.50 802.32,355.87 800.78,359.02 C797.13,366.48 794.60,397.10 790.99,477.50 C788.02,543.80 784.09,622.57 783.37,630.25 C783.03,633.96 782.45,637.00 782.10,637.00 C781.17,637.00 778.43,595.39 775.02,529.50 C767.29,380.60 765.39,354.80 761.69,348.88 C760.88,347.57 759.36,347.00 756.71,347.00 C753.32,347.00 752.74,347.38 751.49,350.38 C748.60,357.29 746.32,385.08 742.49,460.00 C741.09,487.23 738.62,533.59 736.98,563.04 C735.34,592.49 734.00,617.13 734.00,617.79 C734.00,618.46 733.63,619.00 733.17,619.00 C732.37,619.00 731.49,605.75 728.50,548.50 C720.98,404.54 717.88,369.23 712.22,362.75 C709.10,359.17 704.11,360.91 701.17,366.60 C698.21,372.35 695.05,405.96 692.01,464.00 C688.71,527.22 687.97,541.94 686.93,565.00 C686.30,579.03 685.46,592.08 685.08,594.00 C684.45,597.10 684.30,596.69 683.72,590.50 C683.36,586.65 681.92,566.17 680.53,545.00 C672.95,429.78 669.70,398.23 664.78,392.25 C663.67,390.89 658.18,390.58 656.40,391.77 C652.08,394.65 648.78,415.40 646.03,457.00 C643.23,499.21 639.91,546.71 639.04,557.00 C638.50,563.33 637.76,572.29 637.38,576.93 C637.00,581.56 636.18,586.36 635.54,587.58 C634.60,589.41 633.99,585.66 632.18,566.65 C630.97,553.92 629.53,537.88 629.00,531.00 C623.55,461.42 620.92,439.67 616.98,431.96 C613.40,424.94 606.39,425.59 603.01,433.26 C599.54,441.11 597.86,450.92 591.50,500.50 C588.28,525.67 585.44,544.97 583.97,551.75 C582.82,557.06 581.00,558.89 581.00,554.75 C580.99,553.51 580.10,541.03 579.01,527.00 C575.04,475.83 572.63,464.00 565.70,461.56 C561.31,460.02 557.80,461.87 555.36,467.00 C554.18,469.48 551.59,479.83 549.59,490.00 C544.78,514.49 542.49,521.32 540.68,516.61 C540.39,515.84 539.19,509.21 538.03,501.86 C532.67,468.10 529.61,461.00 520.38,461.00 C517.01,461.00 512.47,465.67 511.06,470.58 C509.01,477.74 507.05,494.20 505.00,521.50 C502.91,549.34 501.31,561.78 500.03,560.33 C499.06,559.25 493.84,534.14 489.98,512.00 C484.62,481.24 480.81,467.81 476.10,463.10 C471.19,458.19 463.56,462.21 460.07,471.54 C458.14,476.69 453.45,499.33 447.54,532.00 C444.55,548.49 441.16,562.00 439.99,562.00 C438.24,562.00 435.02,539.22 432.00,505.50 C427.83,458.90 425.38,440.24 422.57,433.50 C420.65,428.92 416.65,426.39 413.23,427.59 C405.86,430.18 403.49,443.21 398.04,511.00 C396.38,531.62 394.12,557.50 393.02,568.50 C391.92,579.50 391.01,588.84 391.01,589.25 C391.00,589.66 390.62,590.00 390.15,590.00 C389.68,590.00 389.01,586.74 388.66,582.75 C388.30,578.76 387.56,570.55 387.01,564.50 C386.45,558.45 385.33,543.60 384.51,531.50 C383.69,519.40 382.55,502.52 381.97,494.00 C381.39,485.48 380.03,467.02 378.94,453.00 C374.72,398.69 373.07,391.00 365.67,391.00 C361.80,391.00 359.72,392.95 358.20,398.00 C354.92,408.96 352.02,438.87 347.52,508.00 C346.68,520.92 345.56,536.67 345.04,543.00 C344.51,549.33 343.55,563.72 342.90,575.00 C342.25,586.28 341.40,595.86 341.02,596.30 C341.00,596.32 340.98,596.34 340.96,596.37 C340.89,596.45 340.82,596.53 340.76,596.52 C340.08,596.51 339.63,587.03 334.00,473.50 C332.67,446.63 331.31,426.01 329.43,403.83 C326.50,369.45 324.50,361.81 318.29,361.19 C314.18,360.79 311.42,363.80 310.05,370.19 C307.24,383.32 303.80,422.92 300.99,474.50 C299.04,510.39 297.14,545.33 295.01,584.50 C294.44,594.95 293.73,604.85 293.44,606.50 C293.16,608.15 292.59,611.30 292.18,613.50 C291.67,616.30 291.07,610.78 290.19,595.00 C289.49,582.62 288.50,565.21 287.98,556.30 C287.46,547.39 286.12,521.29 285.00,498.30 C280.90,414.37 277.51,363.83 275.32,354.00 C274.23,349.11 272.17,347.00 268.50,347.00 C263.95,347.00 262.45,349.44 261.12,359.00 C259.14,373.16 256.53,411.83 253.48,472.00 C250.28,535.10 247.89,579.07 246.96,592.00 C246.43,599.42 245.70,610.79 245.34,617.25 C244.99,623.71 244.31,629.00 243.85,629.00 C243.38,629.00 242.94,630.46 242.86,632.25 C242.44,642.00 239.10,582.44 236.01,510.00 C232.87,436.41 230.33,393.76 227.93,374.00 C226.69,363.77 226.15,361.35 224.31,357.70 C223.05,355.20 222.43,354.92 218.70,355.20 C215.31,355.44 214.28,356.00 213.25,358.15 C209.42,366.18 206.46,398.03 201.99,479.00 C200.34,508.98 198.55,541.15 198.02,550.50 C197.49,559.85 196.58,576.28 196.01,587.00 C195.43,597.72 194.47,608.30 193.86,610.50 C193.25,612.70 192.67,614.92 192.56,615.44 C192.26,616.92 188.98,564.84 185.97,511.00 C181.92,438.22 178.54,394.86 176.05,383.73 C174.74,377.90 172.42,375.00 169.05,375.00 C163.84,375.00 162.13,378.33 160.05,392.50 C158.24,404.86 156.08,431.48 153.51,473.00 C149.60,536.23 146.01,588.26 145.37,591.00 C144.82,593.33 144.73,593.37 144.02,591.50 C143.10,589.08 140.86,562.73 137.49,514.50 C132.66,445.45 129.39,417.30 125.51,411.38 C121.61,405.43 114.94,407.94 112.54,416.26 C110.58,423.03 107.53,444.22 105.58,464.50 C104.73,473.30 102.90,492.42 101.51,507.00 C95.90,565.79 95.58,568.47 94.11,567.57 C93.12,566.96 92.98,565.81 88.50,521.81 C83.87,476.34 80.73,455.03 77.79,449.11 C75.58,444.67 75.34,444.50 71.06,444.50 C67.16,444.50 66.39,444.88 64.84,447.53 C61.51,453.24 58.97,466.80 55.48,497.50 C52.68,522.19 47.88,549.33 45.96,551.38 C44.27,553.19 41.28,539.18 36.46,507.00 C33.48,487.15 31.53,477.92 29.43,473.86 C25.10,465.48 16.21,468.50 11.97,479.79 C10.79,482.93 8.04,492.48 5.85,501.00 C3.67,509.52 1.45,516.93 0.94,517.45 C-0.22,518.62 -0.32,541.00 0.83,541.00 C2.33,541.00 5.88,536.54 7.54,532.56 C9.82,527.11 12.38,518.52 15.90,504.50 C20.01,488.14 21.52,483.91 22.32,486.50 C22.65,487.60 24.75,500.24 26.98,514.60 C31.37,542.86 32.81,549.49 36.10,556.49 C40.25,565.32 46.82,567.54 52.09,561.91 C57.10,556.54 60.88,540.28 64.97,506.50 C67.93,482.14 70.23,467.00 70.99,467.00 C71.79,467.00 74.95,493.09 78.99,533.00 C83.76,580.10 86.61,594.12 92.00,597.00 C97.38,599.88 100.92,595.82 103.37,584.00 C105.24,574.92 109.05,541.43 112.52,503.50 C116.94,455.20 119.07,436.64 120.07,437.73 C120.46,438.15 121.51,447.27 122.40,458.00 C123.30,468.73 124.47,482.67 125.00,489.00 C125.53,495.33 126.41,506.80 126.95,514.50 C131.66,581.96 134.40,611.56 137.07,623.91 C138.31,629.67 141.62,634.00 144.78,634.00 C147.46,634.00 150.66,630.14 151.83,625.50 C154.73,613.91 158.77,564.71 163.02,489.00 C165.47,445.20 168.12,413.77 169.08,417.02 C169.48,418.38 170.32,428.05 170.94,438.50 C171.56,448.95 172.73,467.62 173.53,480.00 C174.34,492.38 175.89,518.70 177.00,538.50 C181.22,614.33 184.13,648.64 187.10,657.77 C188.23,661.23 192.25,663.93 195.26,663.25 C198.98,662.41 201.17,654.45 202.93,635.50 C205.30,609.87 208.01,565.96 212.02,488.00 C213.40,461.24 216.89,408.42 217.87,399.50 C218.55,393.35 218.72,392.93 219.29,396.00 C220.11,400.50 223.46,463.58 225.99,522.50 C229.68,608.41 231.75,642.04 234.56,661.87 C236.13,672.98 236.24,673.33 239.32,676.75 Z" fill="rgb(21,25,26)"/>
      <path d="M 293.89 601.89 C293.68,605.63 293.50,609.08 293.36,611.75 C293.00,619.04 292.31,625.00 291.85,625.00 C291.38,625.00 291.00,620.84 291.00,615.75 C291.00,612.65 290.83,607.29 290.58,601.64 C291.25,612.30 291.75,615.87 292.18,613.50 C292.59,611.30 293.16,608.15 293.44,606.50 C293.55,605.91 293.71,604.25 293.89,601.89 ZM 244.90 623.12 C244.27,632.75 243.44,640.87 243.05,641.29 C242.65,641.73 242.02,635.20 241.66,626.79 C241.45,621.80 241.02,613.14 240.55,603.89 C241.76,625.38 242.66,636.98 242.86,632.25 C242.94,630.46 243.38,629.00 243.85,629.00 C244.16,629.00 244.56,626.63 244.90,623.12 ZM 193.86 610.50 C194.20,609.27 194.65,605.40 195.09,600.35 C194.87,603.92 194.64,607.69 194.39,611.75 C193.63,624.15 192.00,627.05 192.00,616.01 C192.00,613.39 191.69,606.62 191.25,598.86 C191.97,609.65 192.46,615.97 192.56,615.44 C192.67,614.92 193.25,612.70 193.86,610.50 ZM 145.45 590.49 C145.30,592.15 145.18,593.34 145.09,594.00 C144.05,601.58 143.43,598.34 142.05,578.00 C141.56,570.86 141.09,564.01 140.64,557.44 C142.28,578.40 143.42,589.94 144.02,591.50 C144.73,593.37 144.82,593.33 145.37,591.00 C145.39,590.90 145.42,590.73 145.45,590.49 ZM 268.38 404.29 C268.09,404.58 267.42,413.36 266.44,429.75 C266.78,422.80 267.04,415.54 267.07,411.50 C267.17,397.67 268.52,395.02 269.35,407.01 C269.62,410.92 269.95,416.24 270.34,422.68 C269.32,405.79 268.92,403.75 268.38,404.29 ZM 365.69 428.00 C365.01,426.37 364.35,428.28 363.45,436.67 C363.76,432.67 363.98,428.60 363.98,426.25 C363.99,422.81 364.37,420.00 364.83,420.00 C365.25,420.00 365.83,423.82 366.65,432.48 C366.34,430.38 365.99,428.71 365.69,428.00 ZM 636.70 582.65 C635.72,592.87 635.32,594.21 634.64,591.89 C634.20,590.40 630.61,551.58 629.00,531.00 C629.53,537.88 630.97,553.92 632.18,566.65 C633.99,585.66 634.60,589.41 635.54,587.58 C635.91,586.88 636.33,585.00 636.70,582.65 ZM 649.53 417.67 C647.59,434.85 645.55,463.17 642.53,510.00 C641.47,526.48 640.80,535.82 639.51,551.03 C640.78,534.18 643.60,493.60 646.03,457.00 C647.10,440.78 648.26,427.72 649.53,417.67 ZM 94.11 567.57 C94.64,567.90 95.02,567.76 95.55,564.69 C95.01,569.12 94.63,571.70 94.47,571.86 C93.77,572.57 93.20,569.84 92.62,563.00 C92.38,560.15 92.06,556.62 91.68,552.62 C93.17,566.50 93.45,567.16 94.11,567.57 ZM 0.94 517.45 C1.16,517.23 1.68,515.76 2.38,513.49 C0.90,520.10 0.39,524.71 0.22,530.25 C0.11,533.68 0.15,536.75 0.29,538.72 C-0.24,532.99 0.01,518.39 0.94,517.45 ZM 11.97 479.79 C13.08,476.83 14.52,474.43 16.10,472.66 C13.93,475.41 11.96,479.71 10.19,485.55 C9.56,487.64 8.97,489.60 8.41,491.46 C9.87,486.27 11.23,481.77 11.97,479.79 ZM 127.87 418.11 C130.21,428.15 132.49,448.55 135.25,483.97 C132.29,447.13 130.07,427.66 127.87,418.11 ZM 83.28 476.08 C84.73,486.72 86.32,500.66 88.16,518.49 C86.39,502.08 84.52,485.74 83.28,476.08 ZM 311.83 365.02 C310.09,368.77 308.93,375.70 307.54,387.81 C307.21,390.68 306.90,393.43 306.61,396.16 C307.80,384.15 308.97,375.22 310.05,370.19 C310.50,368.11 311.09,366.38 311.83,365.02 ZM 234.34 472.53 C231.94,422.20 229.81,389.45 227.93,374.00 C229.89,390.13 231.94,421.51 234.34,472.53 ZM 362.54 446.22 C361.45,458.82 360.03,478.77 358.00,509.00 C357.60,514.95 357.22,520.64 356.85,526.08 C357.22,520.64 357.60,514.95 358.00,509.00 C360.72,468.58 361.64,455.64 362.54,446.22 ZM 190.13 581.61 C189.39,570.38 188.52,556.25 188.03,547.50 C187.74,542.29 187.46,537.29 187.19,532.50 C188.24,550.62 189.26,567.71 190.13,581.61 ZM 368.99 461.12 C370.18,477.09 371.65,498.25 373.48,525.50 C372.42,509.75 370.49,482.10 368.99,461.12 ZM 125.51 411.38 C123.77,408.72 120.79,407.70 118.04,408.64 C120.62,407.45 123.45,408.23 125.51,411.38 ZM 289.41 581.27 C288.05,558.94 286.84,536.10 285.01,498.50 C284.88,495.85 284.75,493.23 284.62,490.65 C284.75,493.17 284.87,495.72 285.00,498.30 C286.12,521.29 287.46,547.39 287.98,556.30 C288.32,562.20 288.88,571.84 289.41,581.27 ZM 271.01 434.27 C272.01,452.02 273.23,475.01 274.45,499.46 C272.89,469.28 271.80,448.50 271.01,434.27 ZM 186.02 511.84 C184.42,483.80 183.20,463.71 182.12,447.61 C183.32,465.33 184.61,486.50 185.97,511.00 ZM 176.05 383.73 C176.43,385.44 176.83,387.91 177.26,391.14 C176.38,384.96 175.43,381.03 174.25,378.59 C174.98,379.93 175.58,381.64 176.05,383.73 ZM 265.35 448.54 C264.17,469.44 262.71,497.37 260.99,531.50 C263.08,489.99 264.32,466.33 265.35,448.54 ZM 105.58 464.50 C105.96,460.51 106.39,456.49 106.84,452.55 C105.80,462.16 104.36,477.09 101.47,507.50 C101.07,511.81 100.66,516.03 100.26,520.12 C100.64,516.09 101.06,511.73 101.51,507.00 C102.90,492.42 104.73,473.30 105.58,464.50 ZM 246.96 592.00 C247.54,583.92 248.69,563.71 250.25,534.29 C248.72,563.21 247.57,583.73 247.02,591.50 C246.74,595.54 246.32,601.74 245.89,608.16 C246.23,602.66 246.64,596.58 246.96,592.00 ZM 300.63 481.21 L 300.99 474.50 C301.43,466.41 301.89,458.61 302.36,451.16 C301.84,459.69 301.28,469.56 300.63,481.21 ZM 112.54 416.26 C112.80,415.35 113.11,414.52 113.46,413.75 C112.73,415.60 112.04,418.08 111.36,421.39 C111.78,419.25 112.18,417.51 112.54,416.26 ZM 32.73 485.07 C31.41,478.76 30.18,474.98 28.75,472.69 C28.98,473.05 29.21,473.44 29.43,473.86 C30.52,475.96 31.56,479.45 32.73,485.07 ZM 278.49 579.83 C279.37,595.48 280.28,609.64 281.16,621.79 C280.25,609.47 279.34,595.23 278.49,579.83 ZM 23.47 469.10 C24.61,469.22 25.71,469.66 26.71,470.44 C26.50,470.28 26.28,470.15 26.06,470.03 C25.17,469.56 24.31,469.25 23.47,469.10 ZM 237.09 534.65 C237.75,549.21 238.41,562.90 239.02,575.18 C238.43,563.59 237.71,548.43 237.09,534.65 ZM 198.02 550.50 C198.49,542.32 199.91,516.67 201.37,490.30 C199.70,520.53 198.63,539.95 197.74,555.50 C197.84,553.68 197.94,552.00 198.02,550.50 ZM 0.81 541.00 C1.61,540.95 2.91,539.81 4.20,538.17 C2.89,539.84 1.59,541.00 0.83,541.00 C0.82,541.00 0.82,541.00 0.81,541.00 ZM 285.95 666.34 C286.43,667.56 287.75,669.38 288.92,670.43 C287.74,669.37 286.41,667.56 285.97,666.41 C285.96,666.39 285.95,666.37 285.95,666.34 ZM 297.10 546.11 L 297.95 530.45 C297.67,535.56 297.38,540.88 297.10,546.11 Z" fill="rgb(104,105,106)"/>
      <path d="M 783.03 633.24 C782.49,639.75 782.06,643.00 781.73,643.00 C781.21,643.00 781.02,642.40 781.30,641.67 C781.54,641.03 781.10,631.56 780.30,619.65 C781.12,630.89 781.74,637.00 782.10,637.00 C782.35,637.00 782.71,635.46 783.03,633.24 ZM 266.36 431.00 C266.73,423.27 266.99,414.28 267.00,408.81 C267.00,401.83 267.38,395.88 267.86,395.59 C268.33,395.30 269.02,400.33 269.39,406.78 C269.52,408.96 269.69,411.87 269.88,415.10 C269.68,411.98 269.51,409.26 269.35,407.01 C268.52,395.02 267.17,397.67 267.07,411.50 C267.04,415.54 266.78,422.80 266.44,429.75 C266.41,430.16 266.39,430.58 266.36,431.00 ZM 789.80 503.62 C787.71,550.73 785.99,585.78 784.64,608.95 C785.93,584.77 787.94,543.90 789.80,503.62 ZM 278.49 579.83 C278.25,575.59 278.02,571.27 277.79,566.87 C278.65,583.00 279.52,597.68 280.37,610.52 C279.74,601.15 279.11,590.86 278.49,579.83 ZM 793.48 426.99 C792.93,437.07 792.34,448.57 791.72,461.72 C792.33,448.70 792.91,437.17 793.48,426.99 ZM 776.12 550.42 C775.75,543.54 775.38,536.64 775.04,530.00 C774.56,520.73 774.10,511.94 773.67,503.60 C774.09,511.79 774.54,520.42 775.02,529.50 C775.39,536.78 775.76,543.76 776.12,550.42 Z" fill="rgb(203,205,205)"/>
      <path d="M 239.32 676.75 C236.24,673.33 236.13,672.98 234.56,661.87 C231.75,642.04 229.68,608.41 225.99,522.50 C223.46,463.58 220.11,400.50 219.29,396.00 C218.72,392.93 218.55,393.35 217.87,399.50 C216.89,408.42 213.40,461.24 212.02,488.00 C208.01,565.96 205.30,609.87 202.93,635.50 C201.17,654.45 198.98,662.41 195.26,663.25 C192.25,663.93 188.23,661.23 187.10,657.77 C184.13,648.64 181.22,614.33 177.00,538.50 C175.89,518.70 174.34,492.38 173.53,480.00 C172.73,467.62 171.56,448.95 170.94,438.50 C170.32,428.05 169.48,418.38 169.08,417.02 C168.12,413.77 165.47,445.20 163.02,489.00 C158.77,564.71 154.73,613.91 151.83,625.50 C150.66,630.14 147.46,634.00 144.78,634.00 C141.62,634.00 138.31,629.67 137.07,623.91 C134.40,611.56 131.66,581.96 126.95,514.50 C126.41,506.80 125.53,495.33 125.00,489.00 C124.47,482.67 123.30,468.73 122.40,458.00 C121.51,447.27 120.46,438.15 120.07,437.73 C119.07,436.64 116.94,455.20 112.52,503.50 C109.05,541.43 105.24,574.92 103.37,584.00 C100.92,595.82 97.38,599.88 92.00,597.00 C86.61,594.12 83.76,580.10 78.99,533.00 C74.95,493.09 71.79,467.00 70.99,467.00 C70.23,467.00 67.93,482.14 64.97,506.50 C60.88,540.28 57.10,556.54 52.09,561.91 C46.82,567.54 40.25,565.32 36.10,556.49 C32.81,549.49 31.37,542.86 26.98,514.60 C24.75,500.24 22.65,487.60 22.32,486.50 C21.52,483.91 20.01,488.14 15.90,504.50 C12.38,518.52 9.82,527.11 7.54,532.56 C5.85,536.60 2.32,541.00 0.76,541.00 C0.27,541.00 0.03,536.16 0.22,530.25 C0.57,519.28 2.20,511.97 10.19,485.55 C14.35,471.79 19.65,466.60 26.06,470.03 C30.28,472.29 32.38,479.74 36.46,507.00 C41.28,539.18 44.27,553.19 45.96,551.38 C47.88,549.33 52.68,522.19 55.48,497.50 C58.97,466.80 61.51,453.24 64.84,447.53 C66.39,444.88 67.16,444.50 71.06,444.50 C75.34,444.50 75.58,444.67 77.79,449.11 C79.37,452.30 80.83,458.92 82.54,470.61 C84.64,485.00 90.87,542.10 92.62,563.00 C93.20,569.84 93.77,572.57 94.47,571.86 C95.01,571.32 98.17,542.33 101.47,507.50 C106.61,453.42 107.15,448.27 109.07,435.00 C111.60,417.55 113.37,411.46 116.52,409.40 C119.61,407.37 123.44,408.21 125.51,411.38 C130.08,418.34 133.64,454.27 142.05,578.00 C143.43,598.34 144.05,601.58 145.09,594.00 C145.98,587.50 149.99,529.90 153.51,473.00 C156.08,431.48 158.24,404.86 160.05,392.50 C162.13,378.33 163.84,375.00 169.05,375.00 C175.54,375.00 177.19,382.14 180.46,424.50 C182.38,449.37 184.33,481.05 188.03,547.50 C188.62,557.95 189.75,576.07 190.55,587.76 C191.35,599.46 192.00,612.17 192.00,616.01 C192.00,627.05 193.63,624.15 194.39,611.75 C196.94,570.16 197.60,558.65 201.99,479.00 C206.46,398.03 209.42,366.18 213.25,358.15 C214.28,356.00 215.31,355.44 218.70,355.20 C222.43,354.92 223.05,355.20 224.31,357.70 C226.15,361.35 226.69,363.77 227.93,374.00 C230.36,393.99 233.21,442.98 236.52,521.50 C237.38,541.85 238.74,570.42 239.54,585.00 C240.35,599.58 241.30,618.38 241.66,626.79 C242.02,635.20 242.65,641.73 243.05,641.29 C243.45,640.86 244.31,632.40 244.95,622.50 C245.58,612.60 246.52,598.65 247.02,591.50 C247.90,578.92 250.39,532.93 253.48,472.00 C256.53,411.83 259.14,373.16 261.12,359.00 C262.45,349.44 263.95,347.00 268.50,347.00 C272.17,347.00 274.23,349.11 275.32,354.00 C277.51,363.82 280.92,414.66 285.01,498.50 C287.11,541.55 288.39,565.25 290.01,591.00 C290.55,599.53 290.99,610.66 291.00,615.75 C291.00,620.84 291.38,625.00 291.85,625.00 C292.31,625.00 293.00,619.04 293.36,611.75 C293.73,604.46 294.48,591.30 295.02,582.50 C295.57,573.70 296.91,549.85 298.00,529.50 C303.23,432.12 304.34,415.69 307.54,387.81 C310.15,365.06 311.96,360.57 318.29,361.19 C324.50,361.81 326.50,369.45 329.43,403.83 C331.31,426.01 332.67,446.63 334.00,473.50 C340.28,600.21 340.12,597.31 341.02,596.30 C341.40,595.86 342.25,586.28 342.90,575.00 C343.55,563.72 344.51,549.33 345.04,543.00 C345.56,536.67 346.68,520.92 347.52,508.00 C352.02,438.87 354.92,408.96 358.20,398.00 C359.72,392.95 361.80,391.00 365.67,391.00 C373.07,391.00 374.72,398.69 378.94,453.00 C380.03,467.02 381.39,485.48 381.97,494.00 C382.55,502.52 383.69,519.40 384.51,531.50 C385.33,543.60 386.45,558.45 387.01,564.50 C387.56,570.55 388.30,578.76 388.66,582.75 C389.01,586.74 389.68,590.00 390.15,590.00 C390.62,590.00 391.00,589.66 391.01,589.25 C391.01,588.84 391.92,579.50 393.02,568.50 C394.12,557.50 396.38,531.62 398.04,511.00 C403.49,443.21 405.86,430.18 413.23,427.59 C416.65,426.39 420.65,428.92 422.57,433.50 C425.38,440.24 427.83,458.90 432.00,505.50 C435.02,539.22 438.24,562.00 439.99,562.00 C441.16,562.00 444.55,548.49 447.54,532.00 C453.45,499.33 458.14,476.69 460.07,471.54 C463.56,462.21 471.19,458.19 476.10,463.10 C480.81,467.81 484.62,481.24 489.98,512.00 C493.84,534.14 499.06,559.25 500.03,560.33 C501.31,561.78 502.91,549.34 505.00,521.50 C507.05,494.20 509.01,477.74 511.06,470.58 C512.47,465.67 517.01,461.00 520.38,461.00 C529.61,461.00 532.67,468.10 538.03,501.86 C539.19,509.21 540.39,515.84 540.68,516.61 C542.49,521.32 544.78,514.49 549.59,490.00 C551.59,479.83 554.18,469.48 555.36,467.00 C557.80,461.87 561.31,460.02 565.70,461.56 C572.63,464.00 575.04,475.83 579.01,527.00 C580.10,541.03 580.99,553.51 581.00,554.75 C581.00,558.89 582.82,557.06 583.97,551.75 C585.44,544.97 588.28,525.67 591.50,500.50 C597.86,450.92 599.54,441.11 603.01,433.26 C606.39,425.59 613.40,424.94 616.98,431.96 C620.92,439.67 623.55,461.42 629.00,531.00 C630.61,551.58 634.20,590.40 634.64,591.89 C635.46,594.70 635.88,592.14 637.41,574.99 C640.30,542.55 641.01,533.58 642.53,510.00 C648.77,413.21 650.85,395.47 656.40,391.77 C658.18,390.58 663.67,390.89 664.78,392.25 C669.70,398.23 672.95,429.78 680.53,545.00 C681.92,566.17 683.36,586.65 683.72,590.50 C684.30,596.69 684.45,597.10 685.08,594.00 C685.46,592.08 686.30,579.03 686.93,565.00 C687.97,541.94 688.71,527.22 692.01,464.00 C695.05,405.96 698.21,372.35 701.17,366.60 C704.11,360.91 709.10,359.17 712.22,362.75 C717.88,369.23 720.98,404.54 728.50,548.50 C731.49,605.75 732.37,619.00 733.17,619.00 C733.63,619.00 734.00,618.46 734.00,617.79 C734.00,617.13 735.34,592.49 736.98,563.04 C738.62,533.59 741.09,487.23 742.49,460.00 C746.32,385.08 748.60,357.29 751.49,350.38 C752.74,347.38 753.32,347.00 756.71,347.00 C759.36,347.00 760.88,347.57 761.69,348.88 C765.39,354.80 767.38,381.79 775.04,530.00 C776.70,562.17 778.90,600.16 779.93,614.42 C780.96,628.67 781.58,640.94 781.30,641.67 C781.02,642.40 781.21,643.00 781.73,643.00 C783.00,643.00 785.72,595.63 789.99,499.50 C794.59,395.80 796.79,367.18 800.78,359.02 C802.32,355.87 802.92,355.50 806.50,355.50 C810.11,355.50 810.67,355.86 812.29,359.15 C813.27,361.17 814.50,365.44 815.03,368.65 C818.01,386.98 822.14,447.47 827.02,544.50 C827.60,556.05 828.49,571.35 829.01,578.50 C829.52,585.65 830.25,597.24 830.62,604.25 C830.99,611.26 831.68,617.00 832.15,617.00 C832.62,617.00 833.00,616.16 833.00,615.14 C833.00,614.12 833.45,607.48 833.99,600.39 C835.20,584.64 838.28,534.02 841.00,485.00 C844.13,428.59 847.49,389.84 850.04,380.76 C851.96,373.90 859.21,372.85 862.20,379.00 C865.66,386.13 868.43,414.29 873.01,489.00 C874.82,518.62 878.05,566.88 879.71,589.30 C880.03,593.60 880.62,596.75 881.01,596.30 C881.41,595.86 882.27,588.53 882.93,580.00 C883.58,571.47 884.75,556.62 885.53,547.00 C886.31,537.38 887.41,522.97 887.97,515.00 C894.25,426.86 896.66,410.13 903.36,408.45 C913.41,405.92 915.43,415.35 923.52,503.00 C927.67,547.95 930.13,570.00 931.00,570.00 C931.35,570.00 932.18,565.16 932.84,559.25 C933.49,553.34 934.49,544.45 935.05,539.50 C935.61,534.55 937.41,517.67 939.05,502.00 C942.58,468.25 945.33,452.28 948.40,447.73 C950.24,445.01 951.20,444.50 954.50,444.50 C962.29,444.50 963.80,449.66 970.01,497.50 C972.22,514.55 974.50,531.20 975.07,534.50 C976.69,543.83 979.21,552.19 980.13,551.27 C981.44,549.96 985.59,529.94 987.95,513.50 C992.40,482.59 995.40,471.21 999.54,469.62 C1003.08,468.26 1006.26,469.07 1009.03,472.03 C1012.18,475.40 1015.04,483.46 1020.44,504.13 C1023.49,515.80 1024.00,519.35 1024.00,528.88 C1024.00,535.00 1023.66,540.00 1023.25,539.99 C1022.12,539.98 1018.34,534.03 1016.59,529.50 C1015.74,527.30 1012.77,516.95 1010.00,506.50 C1007.23,496.05 1004.68,486.83 1004.34,486.00 C1003.50,483.97 1001.48,493.89 998.42,515.00 C993.97,545.69 990.53,557.69 984.79,562.52 C981.19,565.55 978.12,565.67 974.61,562.91 C967.99,557.70 965.16,544.90 958.03,488.00 C955.81,470.22 955.04,465.63 954.40,466.26 C953.62,467.05 951.05,487.80 948.00,518.00 C944.66,550.99 941.56,576.28 939.84,584.39 C937.46,595.60 932.90,600.13 927.53,596.61 C922.70,593.45 919.85,577.08 915.02,524.71 C913.39,507.00 911.82,490.70 911.54,488.50 C911.25,486.30 910.58,479.77 910.04,474.00 C907.56,447.31 906.18,436.48 905.37,437.30 C904.61,438.06 902.00,467.35 899.01,508.75 C891.86,607.77 889.69,626.51 884.79,631.73 C882.29,634.39 880.28,634.59 877.25,632.46 C871.99,628.78 870.04,611.35 864.02,514.50 C860.36,455.61 857.99,421.53 857.31,418.00 C856.73,414.98 856.53,415.53 855.89,422.00 C854.73,433.69 852.24,472.29 849.47,521.50 C844.55,608.85 841.77,643.83 838.81,655.78 C836.80,663.90 830.55,665.77 826.79,659.37 C824.72,655.84 822.63,640.01 820.54,612.00 C818.99,591.22 818.59,584.31 815.04,516.50 C813.94,495.60 812.59,471.75 812.04,463.50 C811.48,455.25 810.31,437.25 809.43,423.50 C807.50,393.21 806.64,388.47 805.64,402.50 C803.92,426.54 802.91,445.38 801.01,489.00 C794.59,636.46 792.28,668.31 787.47,675.67 C783.78,681.33 777.87,678.89 775.57,670.74 C772.43,659.66 769.22,620.15 765.02,541.00 C764.45,530.28 763.53,513.62 762.98,504.00 C761.88,484.88 759.30,435.29 758.31,414.21 C757.97,406.90 757.38,400.74 757.01,400.51 C756.25,400.04 754.93,421.30 751.99,481.50 C748.26,557.87 745.45,607.82 743.44,633.50 C740.96,665.18 739.32,671.50 733.55,671.50 C729.84,671.50 727.31,668.03 726.03,661.23 C723.62,648.33 721.19,612.78 716.50,521.50 C713.64,465.90 709.16,399.61 708.06,396.62 C707.56,395.29 707.10,396.98 706.66,401.73 C705.37,415.58 702.96,456.17 700.49,505.50 C696.48,585.70 696.00,594.69 694.94,610.50 C692.72,643.63 691.34,649.21 685.26,649.81 C680.92,650.24 679.20,647.25 677.47,636.32 C675.73,625.30 672.64,588.16 670.02,547.00 C665.18,470.74 661.38,424.00 660.04,424.00 C659.28,424.00 656.62,455.09 654.48,489.00 C649.22,572.12 645.83,604.63 641.52,612.95 C638.14,619.50 632.64,619.14 629.07,612.13 C624.99,604.15 623.09,588.92 617.45,519.50 C615.20,491.73 613.11,469.45 611.34,454.25 C611.00,451.36 610.40,449.00 610.01,449.00 C609.05,449.00 606.68,464.23 603.00,494.00 C594.29,564.38 590.54,578.02 580.23,576.81 C574.06,576.09 571.90,568.66 569.50,540.00 C566.28,501.61 565.88,497.18 564.83,488.75 C564.23,483.94 563.42,480.00 563.03,480.00 C562.65,480.00 560.87,487.50 559.09,496.67 C555.27,516.28 552.86,523.32 548.44,527.75 C544.03,532.17 539.96,532.16 535.50,527.70 C531.35,523.55 529.63,517.91 526.45,498.00 C523.91,482.12 522.53,475.19 521.72,474.38 C520.12,472.79 517.75,492.61 514.52,534.50 C512.20,564.51 509.37,575.12 503.28,576.65 C493.49,579.10 489.46,569.21 481.06,522.00 C476.36,495.57 472.34,476.94 471.06,475.66 C469.33,473.93 465.63,490.35 458.48,531.50 C453.99,557.33 448.76,573.45 444.07,575.96 C441.29,577.45 437.79,577.24 435.22,575.44 C428.54,570.76 426.57,559.57 419.47,486.00 C416.51,455.38 416.06,452.00 414.87,452.00 C414.39,452.00 414.00,452.63 414.00,453.41 C414.00,454.18 413.11,463.29 412.02,473.66 C410.92,484.02 409.11,504.42 407.99,519.00 C403.50,577.44 400.20,604.74 396.79,611.68 C396.08,613.13 394.29,615.22 392.81,616.31 C390.26,618.19 389.97,618.21 387.58,616.64 C382.66,613.42 381.22,608.63 378.60,586.81 C376.88,572.48 375.62,557.42 373.48,525.50 C368.30,448.32 365.98,420.00 364.83,420.00 C364.37,420.00 363.99,422.81 363.98,426.25 C363.97,429.69 363.52,436.77 362.97,442.00 C361.88,452.29 361.14,462.31 358.00,509.00 C349.47,635.86 348.39,645.90 342.90,649.30 C340.49,650.80 336.48,649.36 335.19,646.52 C332.23,640.02 329.71,607.21 326.00,527.00 C322.68,455.00 319.01,396.67 317.71,395.38 C317.16,394.82 316.39,402.77 314.52,428.50 C313.02,449.10 311.81,469.88 307.48,550.00 C301.84,654.23 300.15,669.21 293.78,671.42 C291.61,672.17 290.63,671.97 288.92,670.43 C287.74,669.37 286.41,667.56 285.97,666.41 C283.55,660.09 279.79,610.39 276.49,541.00 C274.64,502.27 272.35,457.78 271.03,435.00 C270.51,425.92 269.77,413.23 269.39,406.78 C269.02,400.33 268.33,395.30 267.86,395.59 C267.38,395.88 267.00,401.83 267.00,408.81 C266.99,415.79 266.56,428.48 266.04,437.00 C264.84,456.37 263.56,480.41 260.99,531.50 C256.90,613.03 253.27,658.85 249.92,671.30 C247.98,678.50 243.14,680.99 239.32,676.75 Z" fill="rgb(252,253,253)"/>
    </svg>
  </g>

  <!-- Typography defaults -->
  <!-- Track name -->
  <text x="152" y="52"
        fill="#ffffff"
        font-family="-apple-system, BlinkMacSystemFont, 'Segoe UI', Helvetica, Arial, sans-serif"
        font-size="18"
        font-weight="700">
    R U Mine?
  </text>

  <!-- Artist name -->
  <text x="152" y="74"
        fill="#b3b3b3"
        font-family="-apple-system, BlinkMacSystemFont, 'Segoe UI', Helvetica, Arial, sans-serif"
        font-size="14"
        font-weight="400">
    Arctic monkeys
  </text>

  <!-- Status -->
  <text x="152" y="96"
        fill="#1db954"
        font-family="-apple-system, BlinkMacSystemFont, 'Segoe UI', Helvetica, Arial, sans-serif"
        font-size="11"
        font-weight="600"
        letter-spacing="0.5">
    NOW PLAYING
  </text>

  <!-- Progress bar background -->
  <rect x="152" y="112" width="292" height="4" rx="2" fill="#404040"/>

  <!-- Progress bar fill (45%) -->
  <rect x="152" y="112" width="131.4" height="4" rx="2" fill="#1db954"/>

  <!-- Time left -->
  <text x="152" y="135"
        fill="#a7a7a7"
        font-family="-apple-system, BlinkMacSystemFont, 'Segoe UI', Helvetica, Arial, sans-serif"
        font-size="11"
        font-weight="400">
    1:23
  </text>

  <!-- Time remaining (right aligned) -->
  <text x="444" y="135"
        fill="#a7a7a7"
        font-family="-apple-system, BlinkMacSystemFont, 'Segoe UI', Helvetica, Arial, sans-serif"
        font-size="11"
        font-weight="400"
        text-anchor="end">
    -3:21
  </text>

</svg>
